<svg width="24.000000" height="24.000000" viewBox="0 0 24 24" fill="none" xmlns="http://www.w3.org/2000/svg" xmlns:xlink="http://www.w3.org/1999/xlink">
	<desc>
			Created with Pixso.
	</desc>
	<defs>
		<clipPath id="clip2_100">
			<rect id="telegram_3mc162kyy5f6" width="24.000000" height="24.000000" fill="white" fill-opacity="0"/>
		</clipPath>
	</defs>
	<g clip-path="url(#clip2_100)">
		<path id="path" d="M12 24C18.62 24 24 18.62 24 12C24 5.37 18.62 0 12 0C5.37 0 0 5.37 0 12C0 18.62 5.37 24 12 24ZM5.49 11.74L17.06 7.27C17.59 7.08 18.06 7.41 17.89 8.22L15.92 17.5C15.77 18.16 15.38 18.32 14.84 18.01L11.84 15.79L10.39 17.19C10.23 17.35 10.09 17.48 9.78 17.48L10 14.43L15.56 9.41C15.8 9.19 15.5 9.07 15.18 9.29L8.31 13.61L5.35 12.69C4.71 12.48 4.69 12.05 5.49 11.74Z" fill="#59BA8D" fill-opacity="1.000000" fill-rule="nonzero"/>
	</g>
</svg>
