<svg width="536" height="398" viewBox="0 0 536 398" fill="none" xmlns="http://www.w3.org/2000/svg">
<path d="M500.948 350.71C491.738 350.71 483.543 348.993 476.362 345.559C469.338 341.968 463.874 336.661 459.972 329.636C456.069 322.612 454.118 314.104 454.118 304.114V198.277H501.885V298.963C501.885 302.865 502.978 305.987 505.163 308.329C507.505 310.514 510.627 311.607 514.529 311.607H534.9V350.71H500.948ZM431.171 266.65V231.293H530.451V266.65H431.171Z" fill="black"/>
<path d="M359.875 353.988C346.45 353.988 334.43 351.256 323.815 345.793C313.2 340.173 304.927 332.446 298.995 322.612C293.063 312.777 290.097 301.616 290.097 289.128C290.097 276.64 292.985 265.479 298.761 255.644C304.693 245.81 312.966 238.161 323.581 232.698C334.352 227.078 346.45 224.268 359.875 224.268C373.299 224.268 385.319 227.078 395.934 232.698C406.549 238.161 414.822 245.81 420.754 255.644C426.686 265.479 429.652 276.64 429.652 289.128C429.652 301.616 426.686 312.777 420.754 322.612C414.822 332.446 406.549 340.173 395.934 345.793C385.319 351.256 373.299 353.988 359.875 353.988ZM359.875 314.416C364.245 314.416 368.07 313.402 371.348 311.372C374.626 309.187 377.124 306.221 378.841 302.475C380.714 298.572 381.651 294.123 381.651 289.128C381.651 284.133 380.714 279.762 378.841 276.016C377.124 272.113 374.626 269.147 371.348 267.118C368.07 264.932 364.245 263.84 359.875 263.84C355.348 263.84 351.445 264.932 348.167 267.118C344.889 269.147 342.391 272.113 340.674 276.016C338.957 279.762 338.098 284.133 338.098 289.128C338.098 294.123 338.957 298.572 340.674 302.475C342.391 306.221 344.889 309.187 348.167 311.372C351.445 313.402 355.348 314.416 359.875 314.416Z" fill="black"/>
<path d="M144.006 397.072V227.546H188.729V243.234H189.9C193.959 237.302 199.266 232.698 205.822 229.419C212.535 225.985 219.95 224.268 228.067 224.268C237.589 224.268 246.565 226.922 254.994 232.229C263.58 237.381 270.448 244.873 275.6 254.708C280.907 264.542 283.561 276.016 283.561 289.128C283.561 302.241 280.907 313.714 275.6 323.548C270.448 333.383 263.58 340.954 254.994 346.261C246.565 351.412 237.589 353.988 228.067 353.988C220.418 353.988 213.549 352.583 207.461 349.773C201.374 346.964 196.534 343.061 192.944 338.066H191.773V397.072H144.006ZM213.784 314.651C218.31 314.651 222.213 313.636 225.491 311.607C228.769 309.421 231.267 306.455 232.984 302.709C234.701 298.806 235.56 294.279 235.56 289.128C235.56 283.977 234.701 279.528 232.984 275.781C231.267 271.879 228.769 268.913 225.491 266.884C222.213 264.698 218.31 263.606 213.784 263.606C209.257 263.606 205.354 264.62 202.076 266.65C198.798 268.679 196.222 271.645 194.349 275.547C192.632 279.45 191.773 283.977 191.773 289.128C191.773 294.436 192.632 299.04 194.349 302.943C196.222 306.689 198.798 309.577 202.076 311.607C205.354 313.636 209.257 314.651 213.784 314.651Z" fill="black"/>
<path d="M69.7572 353.988C55.552 353.988 43.6103 351.959 33.932 347.9C24.2538 343.685 17.0731 338.3 12.3901 331.744C7.70705 325.031 5.52163 318.007 5.83383 310.67H50.7909C51.4154 313.792 53.1325 316.29 55.9423 318.163C58.9082 320.036 63.201 320.973 68.8206 320.973C73.8159 320.973 77.3281 320.348 79.3574 319.099C81.5429 317.851 82.6356 316.212 82.6356 314.182C82.6356 312.153 81.699 310.514 79.8258 309.265C77.9525 308.016 75.2988 307.002 71.8646 306.221C68.5865 305.285 64.6839 304.348 60.157 303.411C50.1665 301.226 41.8151 298.884 35.1028 296.387C28.5465 293.889 22.7708 289.987 17.7756 284.679C12.7803 279.216 10.2827 271.957 10.2827 262.903C10.2827 255.879 12.3901 249.478 16.6048 243.703C20.9756 237.771 27.5319 233.088 36.2735 229.654C45.1713 226.063 55.9423 224.268 68.5865 224.268C82.0112 224.268 93.3285 226.375 102.538 230.59C111.905 234.649 118.773 239.956 123.144 246.512C127.515 252.913 129.544 259.547 129.232 266.415H84.0405C83.5722 263.762 82.1673 261.576 79.8258 259.859C77.4842 258.142 74.2842 257.283 70.2255 257.283C66.4791 257.283 63.6693 257.908 61.7961 259.157C60.079 260.405 59.2204 261.966 59.2204 263.84C59.2204 265.245 60.0009 266.493 61.5619 267.586C63.279 268.523 65.6206 269.459 68.5865 270.396C71.7085 271.176 75.3769 271.957 79.5916 272.737C89.7382 274.923 98.2457 277.264 105.114 279.762C112.139 282.26 118.305 286.318 123.612 291.938C128.92 297.401 131.573 304.738 131.573 313.948C131.573 321.129 129.31 327.763 124.783 333.851C120.256 339.939 113.309 344.856 103.943 348.603C94.7334 352.193 83.338 353.988 69.7572 353.988Z" fill="black"/>
<path d="M466.215 185.682C452.946 185.682 441.005 182.872 430.39 177.253C419.775 171.633 411.502 163.906 405.57 154.072C399.794 144.237 396.906 133.154 396.906 120.822C396.906 108.49 399.872 97.407 405.804 87.5726C411.736 77.7383 420.009 70.0113 430.624 64.3916C441.239 58.772 453.103 55.9622 466.215 55.9622C479.796 55.9622 491.816 58.772 502.274 64.3916C512.733 70.0113 520.928 77.8944 526.86 88.0409C532.792 98.1875 535.758 110.051 535.758 123.632C535.758 124.881 535.758 126.208 535.758 127.613C535.758 128.861 535.758 130.11 535.758 131.359H429.453V108.88H496.421L487.991 113.329C487.523 108.802 486.352 104.978 484.479 101.856C482.606 98.5778 480.108 96.0801 476.986 94.363C474.02 92.6459 470.508 91.7874 466.449 91.7874C461.766 91.7874 457.708 92.8801 454.273 95.0655C450.995 97.2509 448.42 100.607 446.546 105.134C444.829 109.505 443.971 114.734 443.971 120.822C443.971 127.066 444.829 132.374 446.546 136.744C448.42 141.115 450.995 144.393 454.273 146.579C457.708 148.764 461.766 149.857 466.449 149.857C470.82 149.857 474.41 149.155 477.22 147.75C480.186 146.345 482.684 144.159 484.713 141.193H533.651C531.465 149.779 527.251 157.506 521.007 164.374C514.762 171.087 506.879 176.316 497.357 180.063C487.991 183.809 477.61 185.682 466.215 185.682Z" fill="black"/>
<path d="M180.542 182.404V59.2403H225.265V76.8016H226.436C230.494 70.4015 235.958 65.3282 242.826 61.5818C249.695 57.8354 257.188 55.9622 265.305 55.9622C273.422 55.9622 280.759 57.9134 287.315 61.8159C293.871 65.5624 298.945 70.7137 302.535 77.27H303.706C307.764 70.8698 313.306 65.7185 320.331 61.8159C327.355 57.9134 334.692 55.9622 342.341 55.9622C351.707 55.9622 359.746 57.9134 366.458 61.8159C373.327 65.7185 378.556 71.4942 382.147 79.1432C385.737 86.636 387.532 95.6899 387.532 106.305V182.404H339.765V114.734C339.765 108.646 338.438 104.119 335.785 101.153C333.287 98.0314 329.775 96.4704 325.248 96.4704C319.784 96.4704 315.491 98.2656 312.369 101.856C309.403 105.29 307.92 110.441 307.92 117.31V182.404H260.154V114.734C260.154 108.646 258.827 104.119 256.173 101.153C253.675 98.0314 250.163 96.4704 245.636 96.4704C240.173 96.4704 235.88 98.2656 232.758 101.856C229.792 105.29 228.309 110.441 228.309 117.31V182.404H180.542Z" fill="black"/>
<path d="M116.966 182.404V59.2404H164.733V182.404H116.966ZM141.084 47.0645C133.747 47.0645 127.737 44.8791 123.054 40.5082C118.527 35.9813 116.264 30.2836 116.264 23.4152C116.264 16.7028 118.527 11.1612 123.054 6.79039C127.737 2.26346 133.747 0 141.084 0C148.421 0 154.353 2.26346 158.88 6.79039C163.563 11.1612 165.904 16.7028 165.904 23.4152C165.904 30.2836 163.563 35.9813 158.88 40.5082C154.353 44.8791 148.421 47.0645 141.084 47.0645Z" fill="black"/>
<path d="M69.7772 182.404C60.5672 182.404 52.3719 180.687 45.1913 177.253C38.1667 173.663 32.7032 168.355 28.8007 161.331C24.8981 154.306 22.9469 145.799 22.9469 135.808V29.9717H70.7138V130.657C70.7138 134.559 71.8065 137.681 73.9919 140.023C76.3334 142.208 79.4555 143.301 83.358 143.301H103.729V182.404H69.7772ZM0 98.3439V62.987H99.2803V98.3439H0Z" fill="black"/>
<path d="M123.054 40.5082C127.737 44.8791 133.747 47.0645 141.084 47.0645C148.421 47.0645 154.353 44.8791 158.88 40.5082C163.563 35.9813 165.904 30.2836 165.904 23.4152C165.904 16.7028 163.563 11.1612 158.88 6.79039C154.353 2.26346 148.421 0 141.084 0C133.747 0 127.737 2.26346 123.054 6.79039C118.527 11.1612 116.264 16.7028 116.264 23.4152C116.264 30.2836 118.527 35.9813 123.054 40.5082Z" fill="#1DBD89"/>
</svg>
