<svg width="243" height="180" viewBox="0 0 243 180" fill="none" xmlns="http://www.w3.org/2000/svg">
<path d="M226.583 159C222.424 159 218.723 158.225 215.481 156.674C212.309 155.053 209.842 152.656 208.079 149.484C206.317 146.312 205.436 142.47 205.436 137.959V90.1676H227.006V135.633C227.006 137.395 227.499 138.805 228.486 139.862C229.543 140.849 230.953 141.343 232.715 141.343H241.914V159H226.583ZM195.074 121.042V105.076H239.905V121.042H195.074Z" fill="black"/>
<path d="M162.88 160.48C156.818 160.48 151.39 159.247 146.597 156.78C141.803 154.242 138.068 150.753 135.389 146.312C132.71 141.871 131.371 136.831 131.371 131.192C131.371 125.553 132.675 120.513 135.283 116.072C137.962 111.631 141.698 108.178 146.491 105.71C151.355 103.173 156.818 101.904 162.88 101.904C168.942 101.904 174.369 103.173 179.163 105.71C183.956 108.178 187.692 111.631 190.37 116.072C193.049 120.513 194.388 125.553 194.388 131.192C194.388 136.831 193.049 141.871 190.37 146.312C187.692 150.753 183.956 154.242 179.163 156.78C174.369 159.247 168.942 160.48 162.88 160.48ZM162.88 142.611C164.853 142.611 166.58 142.153 168.061 141.237C169.541 140.25 170.669 138.911 171.444 137.219C172.29 135.457 172.713 133.448 172.713 131.192C172.713 128.937 172.29 126.963 171.444 125.271C170.669 123.509 169.541 122.17 168.061 121.253C166.58 120.266 164.853 119.773 162.88 119.773C160.835 119.773 159.073 120.266 157.593 121.253C156.113 122.17 154.985 123.509 154.209 125.271C153.434 126.963 153.046 128.937 153.046 131.192C153.046 133.448 153.434 135.457 154.209 137.219C154.985 138.911 156.113 140.25 157.593 141.237C159.073 142.153 160.835 142.611 162.88 142.611Z" fill="black"/>
<path d="M65.4023 179.935V103.384H85.5974V110.468H86.1261C87.9588 107.79 90.3554 105.71 93.3159 104.23C96.347 102.679 99.6952 101.904 103.361 101.904C107.66 101.904 111.714 103.102 115.52 105.499C119.397 107.825 122.498 111.209 124.824 115.649C127.221 120.09 128.419 125.271 128.419 131.192C128.419 137.113 127.221 142.294 124.824 146.735C122.498 151.176 119.397 154.594 115.52 156.991C111.714 159.317 107.66 160.48 103.361 160.48C99.9066 160.48 96.8051 159.846 94.0561 158.577C91.307 157.308 89.1218 155.546 87.5006 153.29H86.9719V179.935H65.4023ZM96.9109 142.717C98.955 142.717 100.717 142.259 102.198 141.343C103.678 140.356 104.806 139.016 105.581 137.325C106.356 135.562 106.744 133.518 106.744 131.192C106.744 128.866 106.356 126.857 105.581 125.165C104.806 123.403 103.678 122.064 102.198 121.147C100.717 120.161 98.955 119.667 96.9109 119.667C94.8667 119.667 93.1045 120.125 91.6242 121.042C90.1439 121.958 88.9809 123.297 88.135 125.06C87.3596 126.822 86.9719 128.866 86.9719 131.192C86.9719 133.589 87.3596 135.668 88.135 137.43C88.9809 139.122 90.1439 140.426 91.6242 141.343C93.1045 142.259 94.8667 142.717 96.9109 142.717Z" fill="black"/>
<path d="M31.8745 160.48C25.46 160.48 20.0676 159.564 15.6973 157.731C11.327 155.828 8.08451 153.396 5.96984 150.436C3.85518 147.405 2.86833 144.233 3.00931 140.92H23.3101C23.5921 142.329 24.3674 143.457 25.6362 144.303C26.9755 145.149 28.914 145.572 31.4516 145.572C33.7072 145.572 35.2932 145.29 36.2096 144.726C37.1964 144.162 37.6898 143.422 37.6898 142.506C37.6898 141.589 37.2669 140.849 36.421 140.285C35.5752 139.721 34.3769 139.263 32.8261 138.911C31.3458 138.488 29.5836 138.065 27.5394 137.642C23.0281 136.655 19.257 135.598 16.226 134.47C13.2654 133.342 10.6574 131.58 8.40171 129.183C6.14606 126.716 5.01824 123.438 5.01824 119.35C5.01824 116.178 5.96984 113.288 7.87304 110.68C9.84673 108.001 12.8073 105.887 16.7546 104.336C20.7725 102.715 25.6362 101.904 31.3458 101.904C37.4079 101.904 42.5183 102.856 46.6772 104.759C50.9065 106.592 54.008 108.988 55.9817 111.949C57.9554 114.839 58.8717 117.835 58.7308 120.936H38.3242C38.1128 119.738 37.4784 118.751 36.421 117.975C35.3637 117.2 33.9187 116.812 32.086 116.812C30.3942 116.812 29.1254 117.094 28.2796 117.658C27.5042 118.222 27.1165 118.927 27.1165 119.773C27.1165 120.407 27.4689 120.971 28.1738 121.465C28.9492 121.888 30.0065 122.311 31.3458 122.733C32.7556 123.086 34.4121 123.438 36.3153 123.791C40.8971 124.778 44.7387 125.835 47.8402 126.963C51.0122 128.091 53.7965 129.923 56.1932 132.461C58.5898 134.928 59.7881 138.241 59.7881 142.4C59.7881 145.642 58.766 148.638 56.7218 151.387C54.6776 154.136 51.5409 156.357 47.3116 158.048C43.1527 159.67 38.007 160.48 31.8745 160.48Z" fill="black"/>
<path d="M210.899 84.4803C204.907 84.4803 199.515 83.2115 194.721 80.6739C189.928 78.1363 186.192 74.6471 183.514 70.2063C180.906 65.7655 179.602 60.7608 179.602 55.1921C179.602 49.6235 180.941 44.6188 183.619 40.178C186.298 35.7372 190.034 32.248 194.827 29.7104C199.62 27.1728 204.978 25.904 210.899 25.904C217.031 25.904 222.459 27.1728 227.182 29.7104C231.904 32.248 235.605 35.8077 238.284 40.3895C240.962 44.9713 242.301 50.3284 242.301 56.4609C242.301 57.0249 242.301 57.624 242.301 58.2584C242.301 58.8223 242.301 59.3862 242.301 59.9501H194.298V49.7997H224.538L220.732 51.8087C220.52 49.7645 219.992 48.0375 219.146 46.6277C218.3 45.1475 217.172 44.0197 215.762 43.2443C214.423 42.4689 212.837 42.0812 211.004 42.0812C208.89 42.0812 207.057 42.5746 205.506 43.5615C204.026 44.5483 202.863 46.0638 202.017 48.108C201.242 50.0817 200.854 52.4431 200.854 55.1921C200.854 58.0117 201.242 60.4083 202.017 62.382C202.863 64.3557 204.026 65.836 205.506 66.8228C207.057 67.8096 208.89 68.3031 211.004 68.3031C212.978 68.3031 214.599 67.9859 215.868 67.3515C217.207 66.7171 218.335 65.7302 219.252 64.3909H241.35C240.363 68.2678 238.46 71.757 235.64 74.8585C232.821 77.8896 229.261 80.2509 224.961 81.9427C220.732 83.6344 216.044 84.4803 210.899 84.4803Z" fill="black"/>
<path d="M81.9004 83V27.3843H102.095V35.3143H102.624C104.457 32.4242 106.924 30.1334 110.025 28.4416C113.127 26.7499 116.51 25.904 120.176 25.904C123.841 25.904 127.154 26.7851 130.115 28.5473C133.075 30.2391 135.366 32.5652 136.987 35.5257H137.516C139.349 32.6357 141.851 30.3096 145.023 28.5473C148.195 26.7851 151.508 25.904 154.962 25.904C159.191 25.904 162.822 26.7851 165.853 28.5473C168.954 30.3096 171.316 32.9177 172.937 36.3716C174.558 39.7551 175.369 43.8434 175.369 48.6367V83H153.799V52.4431C153.799 49.694 153.2 47.6498 152.002 46.3105C150.874 44.9008 149.288 44.1959 147.244 44.1959C144.776 44.1959 142.838 45.0065 141.428 46.6277C140.089 48.1785 139.419 50.5046 139.419 53.6061V83H117.85V52.4431C117.85 49.694 117.251 47.6498 116.052 46.3105C114.924 44.9008 113.338 44.1959 111.294 44.1959C108.827 44.1959 106.889 45.0065 105.479 46.6277C104.14 48.1785 103.47 50.5046 103.47 53.6061V83H81.9004Z" fill="black"/>
<path d="M53.1922 83V27.3843H74.7618V83H53.1922ZM64.0827 21.8862C60.7698 21.8862 58.0559 20.8993 55.9413 18.9256C53.8971 16.8814 52.875 14.3086 52.875 11.2071C52.875 8.17607 53.8971 5.67371 55.9413 3.70003C58.0559 1.65585 60.7698 0.633762 64.0827 0.633762C67.3957 0.633762 70.0743 1.65585 72.1185 3.70003C74.2331 5.67371 75.2905 8.17607 75.2905 11.2071C75.2905 14.3086 74.2331 16.8814 72.1185 18.9256C70.0743 20.8993 67.3957 21.8862 64.0827 21.8862Z" fill="black"/>
<path d="M31.8835 83C27.7247 83 24.024 82.2246 20.7815 80.6739C17.6095 79.0526 15.1424 76.656 13.3802 73.484C11.618 70.312 10.7369 66.4704 10.7369 61.9591V14.1676H32.3065V59.6329C32.3065 61.3952 32.7999 62.8049 33.7867 63.8623C34.8441 64.8491 36.2538 65.3425 38.0161 65.3425H47.2149V83H31.8835ZM0.375 45.0417V29.076H45.2059V45.0417H0.375Z" fill="black"/>
</svg>
